<svg width="61" height="60" viewBox="0 0 61 60" fill="none" xmlns="http://www.w3.org/2000/svg">
<g clip-path="url(#clip0_156_22)">
<path d="M50.873 0H10.127C4.53399 0 0 4.5667 0 10.2V49.704C0 55.3373 4.53399 59.904 10.127 59.904H50.873C56.466 59.904 61 55.3373 61 49.704V10.2C61 4.5667 56.466 0 50.873 0Z" fill="#330000"/>
<path d="M29.5597 35.9496H20.1071L18.1837 41.9671C18.1575 42.0769 18.0942 42.174 18.0045 42.2417C17.9149 42.3095 17.8046 42.3436 17.6926 42.3381H12.9048C12.632 42.3381 12.5364 42.1869 12.6184 41.8845L20.8027 18.1442C20.8844 17.897 20.9664 17.6155 21.0481 17.2994C21.1553 16.7493 21.2101 16.1906 21.2118 15.6302C21.2062 15.591 21.2098 15.5511 21.2222 15.5135C21.2346 15.4759 21.2556 15.4418 21.2834 15.4138C21.3111 15.3857 21.345 15.3646 21.3823 15.3521C21.4196 15.3396 21.4593 15.3359 21.4982 15.3415H28.0047C28.1953 15.3415 28.3045 15.4104 28.3321 15.5479L37.621 41.9258C37.703 42.2009 37.621 42.3384 37.3756 42.3381H32.0557C31.9644 42.3484 31.8725 42.3247 31.7972 42.2716C31.7219 42.2185 31.6683 42.1396 31.6466 42.0497L29.5597 35.9496V35.9496ZM21.5802 30.7565H28.0457L27.9535 30.45L27.8055 29.9647L27.7 29.6239L27.5315 29.0873L27.1734 27.9576L26.8583 26.9561L26.0403 24.3473C25.8367 23.6988 25.6413 23.0477 25.4542 22.3941L25.3045 21.8637L25.1296 21.2366L24.8627 20.2646L24.8127 20.0815H24.772C24.5672 21.0708 24.3179 22.0502 24.0247 23.0167L23.4176 24.9837L23.0835 26.0705L22.7463 27.1706C22.6853 27.3693 22.6248 27.5659 22.564 27.7601L22.3829 28.3356L22.2028 28.8977L22.0236 29.4458L21.8454 29.9803C21.7863 30.1562 21.7272 30.3297 21.6683 30.5011L21.5802 30.7565V30.7565ZM43.1449 19.7105C42.7275 19.7273 42.3113 19.6553 41.9235 19.4991C41.5357 19.3428 41.185 19.1059 40.8943 18.8037C40.6044 18.4885 40.3792 18.1187 40.2317 17.7155C40.0842 17.3123 40.0173 16.8837 40.0348 16.4544C40.02 16.0294 40.0943 15.606 40.253 15.2119C40.4116 14.8178 40.651 14.4618 40.9555 14.1672C41.5429 13.5993 42.3252 13.2814 43.1394 13.2799L43.2266 13.2809C44.2088 13.2809 44.9796 13.5761 45.5389 14.1669C45.8211 14.474 46.0405 14.834 46.1844 15.2265C46.3284 15.619 46.394 16.0363 46.3776 16.4544C46.3948 16.8854 46.3257 17.3155 46.1746 17.7192C46.0235 18.1228 45.7934 18.4917 45.4979 18.804C45.1996 19.1001 44.8455 19.3332 44.4564 19.4894C44.0673 19.6456 43.6511 19.7218 43.2323 19.7136L43.1449 19.7105V19.7105ZM40.3212 41.9258V22.2247C40.3212 21.9775 40.4299 21.8537 40.6486 21.8537H45.6821C45.9001 21.8537 46.0092 21.9773 46.0095 22.2247V41.9258C46.0095 42.2009 45.9004 42.3384 45.6821 42.3381H40.6896C40.4571 42.3381 40.3346 42.2148 40.3224 41.9681L40.3212 41.9258Z" fill="#FF9A00"/>
</g>
<defs>
<clipPath id="clip0_156_22">
<rect width="61" height="60" fill="white"/>
</clipPath>
</defs>
</svg>
