<svg width="69" height="41" viewBox="0 0 69 41" fill="none" xmlns="http://www.w3.org/2000/svg">
<g clip-path="url(#clip0_156_17)">
<path d="M19.5119 14.8561C19.5119 15.6967 19.6036 16.3782 19.7634 16.878C19.9663 17.4402 20.2106 17.9869 20.4944 18.5134C20.6086 18.6951 20.6542 18.8768 20.6542 19.036C20.6542 19.2629 20.5173 19.4902 20.2202 19.7174L18.7809 20.6714C18.5753 20.8078 18.3696 20.8759 18.1866 20.8759C17.9583 20.8759 17.7298 20.7623 17.5012 20.5578C17.1934 20.2289 16.918 19.8714 16.6789 19.4902C16.4503 19.1043 16.2217 18.6723 15.9705 18.15C14.1884 20.2397 11.9491 21.2848 9.25328 21.2848C7.33422 21.2848 5.80328 20.7395 4.68365 19.6494C3.56429 18.5587 2.99315 17.1049 2.99315 15.2878C2.99315 13.3571 3.67857 11.7897 5.07231 10.6085C6.46579 9.42722 8.31666 8.83661 10.6699 8.83661C11.4467 8.83661 12.2464 8.90468 13.0917 9.0183C13.9372 9.13192 14.8054 9.3136 15.7193 9.51807V7.85985C15.7193 6.13329 15.3536 4.92955 14.6453 4.22532C13.9143 3.52108 12.6804 3.18022 10.9211 3.18022C10.1214 3.18022 9.2991 3.27133 8.45358 3.47579C7.60833 3.67999 6.78572 3.93001 5.98602 4.24809C5.62054 4.407 5.34643 4.49785 5.18632 4.5434C5.02649 4.58896 4.91221 4.61147 4.82084 4.61147C4.50091 4.61147 4.34107 4.38422 4.34107 3.90723V2.79407C4.34107 2.43069 4.38689 2.15817 4.50091 1.99926C4.61519 1.84008 4.82084 1.68117 5.14077 1.52226C5.94047 1.11333 6.9 0.772472 8.01937 0.499943C9.13927 0.204635 10.3274 0.0685048 11.5839 0.0685048C14.3029 0.0685048 16.2907 0.681629 17.5702 1.90841C18.8268 3.13493 19.4666 4.99762 19.4666 7.49647V14.8561H19.5124H19.5119ZM10.2357 18.3089C10.9899 18.3089 11.7667 18.1728 12.589 17.9C13.4116 17.6275 14.1428 17.1277 14.7595 16.4463C15.1253 16.0148 15.3994 15.5378 15.5363 14.9925C15.6735 14.4474 15.7649 13.7885 15.7649 13.0162V12.0622C15.072 11.8945 14.3702 11.7656 13.6628 11.6761C12.9505 11.5861 12.2332 11.5406 11.5152 11.5397C9.98425 11.5397 8.86489 11.835 8.11101 12.4484C7.35686 13.0618 6.99138 13.9249 6.99138 15.0606C6.99138 16.1282 7.26549 16.9233 7.83663 17.4686C8.38512 18.0364 9.18482 18.3089 10.2357 18.3089ZM28.5824 20.7623C28.1711 20.7623 27.897 20.6942 27.7143 20.535C27.5315 20.3989 27.3714 20.0808 27.2345 19.6494L21.8655 2.0901C21.728 1.63562 21.6595 1.34031 21.6595 1.1814C21.6595 0.818028 21.8423 0.613296 22.208 0.613296H24.447C24.881 0.613296 25.1783 0.681629 25.3381 0.840537C25.5208 0.976936 25.658 1.29502 25.795 1.72646L29.6333 16.7643L33.1976 1.72646C33.3119 1.27224 33.4491 0.976936 33.6316 0.840537C33.8146 0.704407 34.1345 0.613564 34.5458 0.613564H36.3735C36.8075 0.613564 37.1048 0.681629 37.2872 0.840537C37.4702 0.976936 37.6301 1.29502 37.7214 1.72646L41.3315 16.946L45.2839 1.72646C45.4209 1.27224 45.581 0.976936 45.7408 0.840537C45.9235 0.704407 46.2206 0.613564 46.6319 0.613564H48.7566C49.1223 0.613564 49.328 0.79525 49.328 1.1814C49.328 1.29502 49.3051 1.40864 49.2822 1.54477C49.2593 1.68117 49.2137 1.86286 49.1223 2.11288L43.6158 19.6719C43.4789 20.1263 43.3191 20.4217 43.1361 20.5578C42.9533 20.6942 42.6563 20.785 42.2682 20.785H40.3033C39.8691 20.785 39.572 20.717 39.389 20.5578C39.2063 20.3989 39.0465 20.1036 38.9551 19.6494L35.4134 4.99762L31.895 19.6263C31.781 20.0808 31.6438 20.3761 31.461 20.535C31.2783 20.6942 30.9584 20.7623 30.5473 20.7623H28.5822H28.5824ZM57.9417 21.3756C56.7536 21.3756 55.5655 21.2392 54.4232 20.9667C53.2807 20.6942 52.3899 20.3986 51.7958 20.0583C51.4301 19.8536 51.1786 19.6266 51.0875 19.4221C50.9985 19.2216 50.9518 19.0051 50.9503 18.7859V17.6275C50.9503 17.1505 51.133 16.9233 51.4759 16.9233C51.6158 16.9238 51.7547 16.9469 51.8872 16.9916C52.0241 17.0371 52.2298 17.1277 52.4583 17.2186C53.2653 17.5715 54.1077 17.838 54.9714 18.0136C55.8664 18.1942 56.7773 18.2855 57.6905 18.2862C59.1298 18.2862 60.2494 18.0364 61.0262 17.5367C61.803 17.0369 62.2143 16.3101 62.2143 15.3787C62.2143 14.7428 62.0086 14.2202 61.5973 13.7885C61.186 13.3571 60.4092 12.9709 59.2899 12.6073L55.9768 11.5852C54.3089 11.0627 53.0753 10.2904 52.3211 9.26805C51.5673 8.26851 51.1789 7.15561 51.1789 5.97438C51.1789 5.02039 51.3845 4.17976 51.7958 3.45275C52.2069 2.726 52.7554 2.0901 53.4408 1.59033C54.1262 1.06778 54.903 0.681629 55.817 0.4091C56.7307 0.13657 57.6902 0.0229492 58.6956 0.0229492C59.1982 0.0229492 59.7238 0.045727 60.2265 0.113792C60.7521 0.181858 61.2318 0.272701 61.7116 0.363544C62.1685 0.477165 62.6027 0.590786 63.014 0.727185C63.4253 0.863315 63.745 0.999714 63.9735 1.13584C64.2935 1.3178 64.5217 1.49949 64.6589 1.70395C64.7961 1.88564 64.8646 2.13539 64.8646 2.45347V3.52108C64.8646 3.99807 64.6818 4.24809 64.339 4.24809C64.1563 4.24809 63.8592 4.15698 63.4711 3.9753C62.1685 3.38468 60.7063 3.08937 59.0842 3.08937C57.7818 3.08937 56.7536 3.29384 56.0453 3.72554C55.3372 4.15698 54.9714 4.81593 54.9714 5.74714C54.9714 6.38331 55.2 6.92837 55.6569 7.36007C56.114 7.79151 56.9592 8.22322 58.1702 8.60937L61.4146 9.63169C63.0595 10.1542 64.2476 10.881 64.956 11.8122C65.6643 12.7437 66.0071 13.8113 66.0071 14.9925C66.0071 15.9693 65.8012 16.8552 65.4128 17.6275C65.0018 18.3998 64.4533 19.0813 63.745 19.6266C63.0366 20.1944 62.1914 20.6033 61.2089 20.8986C60.1807 21.2167 59.1069 21.3756 57.9417 21.3756V21.3756Z" fill="#252F3E"/>
<path d="M62.2598 32.4153C54.7431 37.9353 43.8217 40.8656 34.4315 40.8656C21.2711 40.8656 9.41338 36.0271 0.457126 27.9857C-0.251202 27.3498 0.388396 26.4867 1.23365 26.9862C10.9211 32.5745 22.8705 35.959 35.2312 35.959C43.5705 35.959 52.7324 34.2327 61.1634 30.6891C62.4199 30.121 63.4937 31.5069 62.2598 32.4153V32.4153ZM65.3902 28.8717C64.4306 27.6451 59.0384 28.281 56.5937 28.5763C55.8625 28.6675 55.7482 28.0313 56.411 27.5543C60.7063 24.5557 67.7664 25.4191 68.5887 26.4184C69.4113 27.4407 68.3601 34.4597 64.339 37.8217C63.7223 38.3443 63.1283 38.0717 63.4024 37.3903C64.3161 35.1412 66.3497 30.0757 65.3902 28.8717V28.8717Z" fill="#FF9900"/>
</g>
<defs>
<clipPath id="clip0_156_17">
<rect width="69" height="41" fill="white"/>
</clipPath>
</defs>
</svg>
