<svg width="62" height="62" viewBox="0 0 62 62" fill="none" xmlns="http://www.w3.org/2000/svg">
<path d="M12.6444 49.3557L2.03752 38.7489C0.779359 37.4592 0 35.6358 0 33.8535C0 33.0284 0.465 31.7385 0.81593 31.0001L10.6068 10.6069L12.6444 49.3557Z" fill="#01579B"/>
<path d="M48.95 12.6445L38.3431 2.03765C37.418 1.10765 35.4897 0.00012207 33.8578 0.00012207C32.4541 0.00012207 31.0775 0.282755 30.1887 0.816052L10.6115 10.607L48.95 12.6445V12.6445ZM25.2887 62.0001H50.9875V50.9876L31.8159 44.8661L14.2762 50.9876L25.2887 62.0001Z" fill="#40C4FF"/>
<path d="M10.6068 43.6445C10.6068 46.9171 11.0171 47.7195 12.6443 49.3557L14.2762 50.9876H50.9875L33.0421 30.5944L10.6068 10.6067V43.6447V43.6445Z" fill="#29B6F6"/>
<path d="M43.2387 10.6024H10.6068L50.9875 50.9831H62V25.6946L48.9453 12.6399C47.1129 10.8029 45.4857 10.6024 43.2387 10.6024V10.6024Z" fill="#01579B"/>
<path opacity="0.2" d="M13.0547 49.7614C11.4228 48.1252 11.0172 46.5115 11.0172 43.6445V11.0124L10.6115 10.6067V43.6442C10.6066 46.5112 10.6066 47.3044 13.0547 49.7611L14.2763 50.9827L13.0547 49.7611V49.7614Z" fill="white"/>
<path opacity="0.2" d="M61.5943 25.2888V50.5773H50.5818L50.9875 50.9876H62V25.6945L61.5943 25.2888Z" fill="#263238"/>
<path opacity="0.2" d="M48.95 12.6445C46.9263 10.6205 45.2716 10.6069 42.833 10.6069H10.6115L11.0171 11.0126H42.833C44.05 11.0126 47.1222 10.8075 48.95 12.6445V12.6445Z" fill="white"/>
<path opacity="0.2" d="M61.5944 25.2889L48.95 12.6442L38.3432 2.03789C37.418 1.10765 35.4897 0.00012207 33.8578 0.00012207C32.4541 0.00012207 31.0775 0.282755 30.1887 0.816052L10.6115 10.607L0.820566 31.0001C0.469395 31.7432 0.00439453 33.033 0.00439453 33.8536C0.00439453 35.6358 0.788598 37.4544 2.04216 38.7489L11.8147 48.4534C12.0472 48.7404 12.3208 49.0322 12.6444 49.3558L13.0501 49.7614L14.2717 50.983L24.8785 61.5899L25.2842 61.9955H50.9781V50.9833H61.9906V25.6943L61.5941 25.2886L61.5944 25.2889Z" fill="url(#paint0_radial_156_14)"/>
<defs>
<radialGradient id="paint0_radial_156_14" cx="0" cy="0" r="1" gradientUnits="userSpaceOnUse" gradientTransform="translate(30.9975 30.9944) scale(30.9956 30.9955)">
<stop stop-color="white" stop-opacity="0.1"/>
<stop offset="1" stop-color="white" stop-opacity="0"/>
</radialGradient>
</defs>
</svg>
