<svg width="40" height="60" viewBox="0 0 40 60" fill="none" xmlns="http://www.w3.org/2000/svg">
<path d="M10 60.0001C15.52 60.0001 20 55.5201 20 50.0001V40.0001H10C4.48 40.0001 0 44.4801 0 50.0001C0 55.5201 4.48 60.0001 10 60.0001Z" fill="#0ACF83"/>
<path d="M0 30.0001C0 24.4801 4.48 20.0001 10 20.0001H20V40.0001H10C4.48 40.0001 0 35.5201 0 30.0001Z" fill="#A259FF"/>
<path d="M0 10.0001C0 4.48012 4.48 0.00012207 10 0.00012207H20V20.0001H10C4.48 20.0001 0 15.5201 0 10.0001Z" fill="#F24E1E"/>
<path d="M20 0.00012207H30C35.52 0.00012207 40 4.48012 40 10.0001C40 15.5201 35.52 20.0001 30 20.0001H20V0.00012207Z" fill="#FF7262"/>
<path d="M40 30.0001C40 35.5201 35.52 40.0001 30 40.0001C24.48 40.0001 20 35.5201 20 30.0001C20 24.4801 24.48 20.0001 30 20.0001C35.52 20.0001 40 24.4801 40 30.0001Z" fill="#1ABCFE"/>
</svg>
