<svg width="43" height="42" viewBox="0 0 43 42" fill="none" xmlns="http://www.w3.org/2000/svg">
<path d="M21.5 0.25C18.7094 0.25 15.9461 0.799648 13.368 1.86756C10.7898 2.93547 8.44723 4.50074 6.47398 6.47398C2.48883 10.4591 0.25 15.8641 0.25 21.5C0.25 30.8925 6.34875 38.8612 14.785 41.6875C15.8475 41.8575 16.1875 41.1987 16.1875 40.625V37.0337C10.3013 38.3088 9.0475 34.1862 9.0475 34.1862C8.07 31.7212 6.68875 31.0625 6.68875 31.0625C4.755 29.745 6.8375 29.7875 6.8375 29.7875C8.9625 29.9362 10.0887 31.9762 10.0887 31.9762C11.9375 35.2062 15.0612 34.25 16.2725 33.74C16.4638 32.3587 17.0163 31.4237 17.6112 30.8925C12.8938 30.3612 7.9425 28.5338 7.9425 20.4375C7.9425 18.0788 8.75 16.1875 10.1313 14.6788C9.91875 14.1475 9.175 11.9375 10.3438 9.06875C10.3438 9.06875 12.1287 8.495 16.1875 11.2362C17.8663 10.7688 19.6938 10.535 21.5 10.535C23.3062 10.535 25.1337 10.7688 26.8125 11.2362C30.8713 8.495 32.6562 9.06875 32.6562 9.06875C33.825 11.9375 33.0812 14.1475 32.8688 14.6788C34.25 16.1875 35.0575 18.0788 35.0575 20.4375C35.0575 28.555 30.085 30.34 25.3463 30.8713C26.1113 31.53 26.8125 32.8263 26.8125 34.8025V40.625C26.8125 41.1987 27.1525 41.8787 28.2362 41.6875C36.6725 38.84 42.75 30.8925 42.75 21.5C42.75 18.7094 42.2004 15.9461 41.1324 13.368C40.0645 10.7898 38.4993 8.44723 36.526 6.47398C34.5528 4.50074 32.2102 2.93547 29.632 1.86756C27.0539 0.799648 24.2906 0.25 21.5 0.25Z" fill="#FFFDFD"/>
</svg>
