<svg width="73" height="73" viewBox="0 0 73 73" fill="none" xmlns="http://www.w3.org/2000/svg">
<path d="M10.9066 51.8893L37.0292 6.64758L39.3744 8.00036L13.2541 53.2444L10.9066 51.8893Z" fill="#E10098"/>
<path d="M10.3683 48.2758H62.6135V50.9836H10.3683V48.2758Z" fill="#E10098"/>
<path d="M11.404 49.7951L12.7567 47.45L38.8885 62.5381L37.5334 64.8833L11.404 49.7951ZM34.1047 10.4709L35.4597 8.12805L61.5915 23.2162L60.2364 25.5614L34.1047 10.4709Z" fill="#E10098"/>
<path d="M11.4108 23.2094L37.5403 8.12122L38.8953 10.4663L12.7636 25.5545L11.4108 23.2094Z" fill="#E10098"/>
<path d="M33.6325 8.00265L35.9776 6.64758L62.0979 51.8916L59.755 53.2444L33.6325 8.00265ZM12.4419 21.4118H15.1498V51.5882H12.4419V21.4118Z" fill="#E10098"/>
<path d="M57.8525 21.4119H60.5604V51.5882H57.8525V21.4119Z" fill="#E10098"/>
<path d="M35.8932 61.6896L58.619 48.5679L59.803 50.6164L37.0749 63.7382L35.8932 61.6896Z" fill="#E10098"/>
<path d="M64.1487 52.4688C63.5858 53.4469 62.7454 54.236 61.7338 54.7363C60.7223 55.2365 59.585 55.4254 58.466 55.2791C57.3471 55.1327 56.2967 54.6576 55.4478 53.914C54.5989 53.1704 53.9897 52.1917 53.6973 51.1017C53.4049 50.0117 53.4425 48.8595 53.8053 47.7909C54.168 46.7223 54.8396 45.7853 55.7351 45.0986C56.6306 44.4118 57.7097 44.0062 58.8359 43.933C59.962 43.8598 61.0845 44.1224 62.0614 44.6874C63.3688 45.4437 64.3228 46.6877 64.7141 48.1465C65.1054 49.6053 64.9021 51.1597 64.1487 52.4688M18.7062 26.2344C18.1433 27.2125 17.3029 28.0016 16.2913 28.5019C15.2798 29.0021 14.1425 29.191 13.0235 29.0447C11.9046 28.8983 10.8542 28.4233 10.0053 27.6797C9.1564 26.9361 8.54722 25.9573 8.25483 24.8674C7.96245 23.7774 8 22.6252 8.36275 21.5565C8.7255 20.4879 9.39712 19.5509 10.2926 18.8642C11.1881 18.1774 12.2672 17.7718 13.3934 17.6986C14.5195 17.6254 15.642 17.888 16.6189 18.4531C17.9263 19.2093 18.8803 20.4533 19.2716 21.9121C19.6629 23.3709 19.4596 24.9253 18.7062 26.2344ZM8.85124 52.4688C8.28617 51.4919 8.02361 50.3694 8.09679 49.2433C8.16997 48.1171 8.57561 47.038 9.26236 46.1425C9.9491 45.247 10.8861 44.5754 11.9547 44.2126C13.0233 43.8499 14.1756 43.8123 15.2655 44.1047C16.3555 44.3971 17.3342 45.0063 18.0778 45.8552C18.8215 46.704 19.2965 47.7544 19.4429 48.8734C19.5892 49.9924 19.4003 51.1297 18.9001 52.1412C18.3998 53.1528 17.6107 53.9932 16.6326 54.5561C15.3235 55.3095 13.7691 55.5128 12.3103 55.1215C10.8515 54.7302 9.60751 53.7762 8.85124 52.4688M54.2937 26.2344C53.7287 25.2576 53.4661 24.135 53.5393 23.0089C53.6125 21.8827 54.0181 20.8036 54.7049 19.9081C55.3916 19.0126 56.3286 18.341 57.3972 17.9783C58.4658 17.6155 59.6181 17.578 60.708 17.8703C61.798 18.1627 62.7767 18.7719 63.5203 19.6208C64.264 20.4697 64.739 21.5201 64.8854 22.6391C65.0317 23.758 64.8428 24.8953 64.3426 25.9069C63.8423 26.9184 63.0532 27.7589 62.0751 28.3217C60.766 29.0751 59.2116 29.2784 57.7528 28.8871C56.294 28.4958 55.05 27.5418 54.2937 26.2344M36.5 68.4375C35.372 68.4375 34.2694 68.103 33.3315 67.4764C32.3936 66.8497 31.6626 65.959 31.231 64.9169C30.7993 63.8748 30.6864 62.7281 30.9064 61.6218C31.1265 60.5155 31.6697 59.4993 32.4673 58.7017C33.2649 57.9041 34.2811 57.3609 35.3874 57.1409C36.4937 56.9208 37.6404 57.0337 38.6825 57.4654C39.7246 57.8971 40.6153 58.628 41.242 59.5659C41.8686 60.5038 42.2031 61.6064 42.2031 62.7344C42.2052 63.4839 42.0591 64.2265 41.7733 64.9194C41.4874 65.6123 41.0674 66.2418 40.5374 66.7718C40.0074 67.3018 39.3779 67.7218 38.685 68.0077C37.9921 68.2936 37.2495 68.4396 36.5 68.4375M36.5 15.9482C35.372 15.9482 34.2694 15.6138 33.3315 14.9871C32.3936 14.3604 31.6626 13.4697 31.231 12.4276C30.7993 11.3855 30.6864 10.2388 30.9064 9.1325C31.1265 8.0262 31.6697 7.01 32.4673 6.2124C33.2649 5.41481 34.2811 4.87164 35.3874 4.65158C36.4937 4.43152 37.6404 4.54446 38.6825 4.97612C39.7246 5.40778 40.6153 6.13876 41.242 7.07663C41.8686 8.01451 42.2031 9.11715 42.2031 10.2451C42.2052 10.9947 42.0591 11.7372 41.7733 12.4301C41.4874 13.123 41.0674 13.7525 40.5374 14.2825C40.0074 14.8125 39.3779 15.2326 38.685 15.5184C37.9921 15.8043 37.2495 15.9504 36.5 15.9482" fill="#E10098"/>
</svg>
