<svg width="60" height="61" viewBox="0 0 60 61" fill="none" xmlns="http://www.w3.org/2000/svg">
<g clip-path="url(#clip0_156_21)">
<path d="M0 0H60V61H0V0Z" fill="#F7DF1E"/>
<path d="M15.7762 50.976L20.3676 48.151C21.2536 49.7477 22.0594 51.0987 23.9923 51.0987C25.845 51.0987 27.0133 50.362 27.0133 47.4959V28.005H32.6517V47.5769C32.6517 53.5142 29.2284 56.2168 24.2339 56.2168C19.7233 56.2168 17.1051 53.8418 15.776 50.9755M35.7143 50.3617L40.3052 47.6594C41.5139 49.666 43.0847 51.14 45.8634 51.14C48.1999 51.14 49.6896 49.9524 49.6896 48.3144C49.6896 46.3491 48.1591 45.6528 45.5815 44.5067L44.1722 43.8919C40.1041 42.1317 37.4058 39.9205 37.4058 35.2526C37.4058 30.953 40.6277 27.6771 45.6623 27.6771C49.2469 27.6771 51.8245 28.9467 53.677 32.2633L49.2867 35.1298C48.3199 33.3692 47.2732 32.6732 45.6621 32.6732C44.0107 32.6732 42.9635 33.7378 42.9635 35.1298C42.9635 36.8495 44.0107 37.546 46.4271 38.6107L47.8366 39.2247C52.6296 41.3132 55.328 43.4423 55.328 48.2327C55.328 53.3924 51.3408 56.2175 45.9841 56.2175C40.7484 56.2175 37.3652 53.6788 35.714 50.362" fill="black"/>
</g>
<defs>
<clipPath id="clip0_156_21">
<rect width="60" height="61" fill="white"/>
</clipPath>
</defs>
</svg>
