<svg width="62" height="58" viewBox="0 0 62 58" fill="none" xmlns="http://www.w3.org/2000/svg">
<path d="M60.5629 0.00012207L33.9593 19.6425L38.9065 8.06671L60.5629 0.00012207Z" fill="#E17726"/>
<path d="M1.49938 0.0233154L23.0979 8.06816L27.7954 19.7958L1.49938 0.0233154ZM49.8567 41.7741L61.6152 41.9974L57.5057 55.9276L43.1578 51.9858L49.8567 41.7741ZM12.143 41.7741L18.817 51.9858L4.49331 55.9278L0.408813 41.9974L12.143 41.7741Z" fill="#E27625"/>
<path d="M27.1567 16.8085L27.6372 32.2953L13.2583 31.6425L17.3484 25.4853L17.4002 25.4261L27.1567 16.8085ZM34.6943 16.6357L44.5998 25.4266L44.6511 25.4856L48.7412 31.6428L34.3654 32.2953L34.6943 16.6357ZM19.2382 41.8191L27.0894 47.9234L17.9691 52.3171L19.2382 41.8191ZM42.7633 41.8181L44.0059 52.3173L34.9111 47.9229L42.7633 41.8181Z" fill="#E27625"/>
<path d="M35.1119 47.3479L44.3409 51.8071L35.7561 55.8783L35.8452 53.1875L35.1119 47.3479ZM26.8855 47.3498L26.181 53.1436L26.2388 55.8751L17.6339 51.8071L26.8855 47.3498Z" fill="#D5BFB2"/>
<path d="M24.2204 34.3165L26.6321 39.3741L18.4213 36.9739L24.2204 34.3165ZM37.7793 34.317L43.6059 36.9739L35.3681 39.3734L37.7793 34.317Z" fill="#233447"/>
<path d="M19.8656 41.7674L18.5385 52.652L11.4247 42.0054L19.8656 41.7674ZM42.1348 41.7676L50.576 42.0054L43.4356 52.6525L42.1348 41.7676ZM48.949 31.027L42.8059 37.2743L38.0694 35.1145L35.8018 39.8715L34.3153 31.6913L48.949 31.027ZM13.0478 31.027L27.6844 31.6913L26.1976 39.8715L23.9296 35.1153L19.2183 37.2745L13.0478 31.027Z" fill="#CC6228"/>
<path d="M12.634 29.745L19.5843 36.7826L19.825 43.7302L12.634 29.745ZM49.3731 29.7324L42.169 43.7426L42.4402 36.7826L49.3731 29.7324ZM27.3447 30.1737L27.6244 31.9306L28.3156 36.3074L27.8712 49.7502L25.7702 38.9513L25.7695 38.8396L27.3447 30.1737ZM34.6517 30.1493L36.231 38.8396L36.2303 38.9513L34.124 49.7772L34.0407 47.0693L33.712 36.2277L34.6517 30.1493Z" fill="#E27525"/>
<path d="M43.058 36.5029L42.8229 42.5393L35.4909 48.2395L34.0087 47.1945L35.6701 38.6552L43.058 36.5029ZM18.9674 36.5029L26.3297 38.6552L27.9911 47.1945L26.5089 48.2395L19.1767 42.5388L18.9674 36.5029Z" fill="#F5841F"/>
<path d="M16.231 50.4741L25.6114 54.9092L25.5716 53.0152L26.3566 52.3277H35.6406L36.4539 53.0128L36.3938 54.9053L45.7149 50.4852L41.1792 54.2253L35.6948 57.9839H26.2813L20.8006 54.2098L16.231 50.4741Z" fill="#C0AC9D"/>
<path d="M34.44 46.7576L35.7662 47.6926L36.5434 53.8802L35.4187 52.9326H26.5847L25.4813 53.8993L26.233 47.6931L27.5597 46.7576H34.44Z" fill="#161616"/>
<path d="M58.8065 0.543823L62 10.1034L60.0056 19.7694L61.4258 20.8624L59.504 22.3255L60.9484 23.4386L59.0359 25.1764L60.21 26.0249L57.094 29.6562L44.3138 25.943L44.2031 25.8838L34.9934 18.1316L58.8065 0.543823ZM3.19348 0.543823L27.0068 18.1316L17.7969 25.8838L17.6862 25.943L4.90599 29.6562L1.79001 26.0249L2.96316 25.1771L1.05182 23.4386L2.49332 22.3267L0.542742 20.8595L2.01645 19.7657L0 10.1039L3.19348 0.543823Z" fill="#763E1A"/>
<path d="M43.6887 25.131L57.2301 29.0651L61.6295 42.5951H50.0229L42.0258 42.6956L47.8417 31.3837L43.6887 25.131ZM18.3113 25.131L14.1576 31.3837L19.9742 42.6956L11.9808 42.5951H0.39502L4.76965 29.0654L18.3113 25.131ZM39.5696 8.0022L35.782 18.21L34.9782 31.9995L34.6706 36.3217L34.6461 47.3629H27.3536L27.3299 36.3424L27.0214 31.9958L26.2173 18.21L22.4302 8.0022H39.5696Z" fill="#F5841F"/>
</svg>
