<svg width="264" height="264" viewBox="0 0 264 264" fill="none" xmlns="http://www.w3.org/2000/svg">
    <g filter="url(#filter0_d_133_30)">
        <g clip-path="url(#clip0_133_30)">
            <mask id="mask0_133_30" style="mask-type:luminance" maskUnits="userSpaceOnUse" x="4" y="0" width="256" height="256">
                <path d="M132 256C202.692 256 260 198.692 260 128C260 57.3075 202.692 0 132 0C61.3075 0 4 57.3075 4 128C4 198.692 61.3075 256 132 256Z" fill="white"/>
            </mask>
            <g mask="url(#mask0_133_30)">
                <path d="M132 256C202.692 256 260 198.692 260 128C260 57.3075 202.692 0 132 0C61.3075 0 4 57.3075 4 128C4 198.692 61.3075 256 132 256Z" fill="black"/>
                <path d="M216.634 224.028L102.335 76.7998H80.8V179.157H98.028V98.6798L203.11 234.446C207.845 231.278 212.363 227.798 216.634 224.028Z" fill="url(#paint0_linear_133_30)"/>
                <path d="M167.556 76.7998H184.623V179.2H167.556V76.7998Z" fill="url(#paint1_linear_133_30)"/>
            </g>
            <path d="M219 219L149 130" stroke="black" stroke-width="9"/>
        </g>
    </g>
    <defs>
        <filter id="filter0_d_133_30" x="0" y="0" width="264" height="264" filterUnits="userSpaceOnUse" color-interpolation-filters="sRGB">
            <feFlood flood-opacity="0" result="BackgroundImageFix"/>
            <feColorMatrix in="SourceAlpha" type="matrix" values="0 0 0 0 0 0 0 0 0 0 0 0 0 0 0 0 0 0 127 0" result="hardAlpha"/>
            <feOffset dy="4"/>
            <feGaussianBlur stdDeviation="2"/>
            <feComposite in2="hardAlpha" operator="out"/>
            <feColorMatrix type="matrix" values="0 0 0 0 0 0 0 0 0 0 0 0 0 0 0 0 0 0 0.25 0"/>
            <feBlend mode="normal" in2="BackgroundImageFix" result="effect1_dropShadow_133_30"/>
            <feBlend mode="normal" in="SourceGraphic" in2="effect1_dropShadow_133_30" result="shape"/>
        </filter>
        <linearGradient id="paint0_linear_133_30" x1="7637.65" y1="8965.67" x2="12173.7" y2="14587.9" gradientUnits="userSpaceOnUse">
            <stop stop-color="white"/>
            <stop offset="1" stop-color="white" stop-opacity="0"/>
        </linearGradient>
        <linearGradient id="paint1_linear_133_30" x1="1020.91" y1="76.7998" x2="992.03" y2="7596.74" gradientUnits="userSpaceOnUse">
            <stop stop-color="white"/>
            <stop offset="1" stop-color="white" stop-opacity="0"/>
        </linearGradient>
        <clipPath id="clip0_133_30">
            <rect width="256" height="256" fill="white" transform="translate(4)"/>
        </clipPath>
    </defs>
</svg>