<svg width="61" height="60" viewBox="0 0 61 60" fill="none" xmlns="http://www.w3.org/2000/svg">
<path d="M50.873 0.00012207H10.127C4.53399 0.00012207 0 4.56682 0 10.2001V49.7041C0 55.3374 4.53399 59.9041 10.127 59.9041H50.873C56.466 59.9041 61 55.3374 61 49.7041V10.2001C61 4.56682 56.466 0.00012207 50.873 0.00012207Z" fill="#001E36"/>
<path d="M13.7355 42.0085V15.6714C13.7355 15.4794 13.8174 15.3829 13.9811 15.3829L14.2402 15.3822L14.6829 15.3774L15.2981 15.3651L17.3593 15.3212L19.5693 15.2799C20.3466 15.2665 21.1172 15.2593 21.8811 15.2593C23.9542 15.2593 25.7001 15.5204 27.119 16.0424C28.399 16.4785 29.5663 17.1965 30.536 18.1443C31.358 18.9659 31.9932 19.9574 32.3979 21.0502C32.7807 22.1137 32.9747 23.2368 32.971 24.368C32.971 26.5666 32.466 28.3801 31.4567 29.8086C30.4694 31.2022 29.0924 32.268 27.5012 32.87L27.3647 32.9204C25.7031 33.5446 23.8631 33.7702 21.8451 33.7844L21.5316 33.7854L21.0662 33.783L20.8315 33.7796L20.5699 33.7734L20.4121 33.7671L20.3163 33.7621L20.0807 33.7534L19.7926 33.7474L19.3589 33.7443L19.2624 33.7441V41.9672C19.2696 42.0176 19.265 42.069 19.249 42.1173C19.233 42.1656 19.2061 42.2095 19.1704 42.2455C19.1346 42.2815 19.091 42.3087 19.0431 42.3248C18.9951 42.3408 18.9441 42.3455 18.894 42.3382H14.0221C13.8308 42.3382 13.7355 42.2288 13.7355 42.0085V42.0085ZM19.2626 20.3288V28.9189C19.5892 28.9454 19.9167 28.9592 20.2444 28.9602H21.5949C22.5261 28.957 23.4518 28.8174 24.343 28.5457L24.5208 28.4898C25.3316 28.2472 26.056 27.775 26.6079 27.1294C27.1207 26.5203 27.3864 25.681 27.4047 24.6114L27.4059 24.4916C27.4274 23.6943 27.2215 22.9076 26.8123 22.2248C26.3824 21.5644 25.7609 21.0535 25.0324 20.7615C24.0812 20.3891 23.0651 20.214 22.0451 20.2465L21.5261 20.2479L21.1987 20.2508L20.8863 20.2549L20.4455 20.2635L20.1238 20.2726L19.9568 20.2789L19.7335 20.2894L19.5433 20.3012L19.4349 20.3098L19.3413 20.319L19.3001 20.3238L19.2626 20.3288V20.3288ZM48.7928 27.357C48.079 26.9875 47.3218 26.7099 46.5392 26.5309L46.3581 26.4915C45.4971 26.2925 44.6181 26.1829 43.7348 26.1644L43.5142 26.1618C42.9964 26.1476 42.4794 26.2101 41.9797 26.3473C41.6615 26.4185 41.3787 26.601 41.1814 26.8623C41.0481 27.0714 40.9771 27.3146 40.977 27.5631C40.9845 27.8041 41.0707 28.0359 41.2224 28.2224C41.4396 28.4782 41.7007 28.6926 41.9932 28.8553L42.0819 28.9026C42.6653 29.219 43.2665 29.501 43.8823 29.7474C45.2557 30.2104 46.5679 30.8402 47.7902 31.6227C48.6229 32.1521 49.312 32.8815 49.7955 33.7455C50.202 34.5635 50.4056 35.4685 50.3888 36.3831C50.4133 37.591 50.0706 38.7775 49.4067 39.7837C48.6958 40.8049 47.7086 41.5988 46.5625 42.0709C45.3623 42.6022 43.8883 42.8766 42.1407 42.8946L41.9592 42.8955C40.8758 42.9066 39.794 42.8111 38.729 42.6104L38.5012 42.5658C37.6046 42.4001 36.7318 42.1232 35.9028 41.7414C35.8195 41.698 35.7491 41.6332 35.6987 41.5535C35.6484 41.4738 35.62 41.3821 35.6164 41.2878V36.7954C35.6115 36.7518 35.6184 36.7077 35.6364 36.6678C35.6545 36.6278 35.683 36.5936 35.7188 36.5686C35.754 36.5486 35.7943 36.5399 35.8345 36.5436C35.8747 36.5473 35.9128 36.5632 35.9438 36.5893C36.9228 37.1707 37.9858 37.5949 39.0946 37.8464C40.0719 38.0932 41.0744 38.2246 42.0819 38.2381C43.0364 38.2381 43.7389 38.1142 44.1892 37.867C44.3926 37.7733 44.5646 37.6222 44.6845 37.432C44.8043 37.2418 44.8669 37.0207 44.8645 36.7954C44.8645 36.4388 44.6599 36.0951 44.2507 35.7651C44.0792 35.6269 43.833 35.4764 43.5128 35.3139L43.3596 35.2381L43.1961 35.1606L43.1103 35.1212L42.9306 35.041C42.8995 35.0273 42.8683 35.0137 42.837 35.0002L42.6416 34.9177L42.5399 34.8757L42.3287 34.7905L42.2191 34.7473L41.9921 34.6592L41.7545 34.5697C40.4696 34.1192 39.2512 33.4953 38.1329 32.715C37.333 32.1546 36.6744 31.4136 36.2097 30.5511C35.8073 29.739 35.6038 28.8415 35.6164 27.9339C35.6141 26.8434 35.9115 25.7735 36.4756 24.8427C37.119 23.8179 38.0425 23.0019 39.1355 22.4936C40.3358 21.8895 41.836 21.5871 43.6367 21.5866C44.6913 21.5781 45.745 21.6539 46.7877 21.8134C47.5428 21.9099 48.2809 22.111 48.9813 22.411C49.094 22.4437 49.1848 22.5274 49.2268 22.6378C49.2546 22.7384 49.2682 22.8423 49.2677 22.947V27.1098C49.2737 27.2082 49.2268 27.3025 49.145 27.357C49.0903 27.3844 49.03 27.3986 48.9689 27.3986C48.9078 27.3986 48.8476 27.3844 48.7928 27.357V27.357Z" fill="#31A8FF"/>
</svg>
