<svg width="256" height="256" viewBox="0 0 256 256" fill="none" xmlns="http://www.w3.org/2000/svg">
    <g clip-path="url(#clip0_131_11)">
        <path d="M196 0H60C26.8629 0 0 26.8629 0 60V196C0 229.137 26.8629 256 60 256H196C229.137 256 256 229.137 256 196V60C256 26.8629 229.137 0 196 0Z" fill="#242938"/>
        <path d="M93.213 222.94L50 48L223.23 97.874L93.213 222.94Z" stroke="white" stroke-width="4" stroke-miterlimit="10" stroke-linejoin="round"/>
        <path d="M136.583 72.9419L158.174 160.438L71.6071 135.493L136.583 72.9419Z" stroke="white" stroke-width="4" stroke-miterlimit="10" stroke-linejoin="round"/>
        <path d="M115.103 147.36L104.379 103.895L147.387 116.241L115.103 147.36ZM93.6499 60.4829L104.375 103.948L61.3669 91.6019L93.6499 60.4829ZM179.663 85.2599L190.387 128.725L147.379 116.379L179.663 85.2599ZM115.108 147.39L125.832 190.855L82.8239 178.509L115.108 147.39Z" stroke="white" stroke-width="4" stroke-miterlimit="10" stroke-linejoin="round"/>
    </g>
    <defs>
        <clipPath id="clip0_131_11">
            <rect width="256" height="256" fill="white"/>
        </clipPath>
    </defs>
</svg>