<svg width="61" height="61" viewBox="0 0 61 61" fill="none" xmlns="http://www.w3.org/2000/svg">
<g clip-path="url(#clip0_156_20)">
<path d="M4.76562 0H56.2344C58.8664 0 61 2.13357 61 4.76562V56.2344C61 58.8664 58.8664 61 56.2344 61H4.76562C2.13357 61 0 58.8664 0 56.2344V4.76562C0 2.13357 2.13357 0 4.76562 0Z" fill="#3178C6"/>
<path d="M35.8656 47.7694V54.3508C36.936 54.8993 38.202 55.3106 39.6633 55.5848C41.1247 55.8591 42.665 55.9961 44.2843 55.9961C45.8622 55.9961 47.3615 55.8453 48.7817 55.5436C50.2018 55.2419 51.4473 54.7449 52.5174 54.0527C53.5878 53.3602 54.4351 52.4552 55.0597 51.3377C55.6839 50.2204 55.9961 48.8391 55.9961 47.1937C55.9961 46.0009 55.8176 44.9553 55.4609 44.0572C55.1081 43.1652 54.5836 42.3512 53.9171 41.6613C53.2449 40.962 52.4386 40.3348 51.4988 39.7794C50.5588 39.2242 49.4986 38.6997 48.3184 38.2063C47.454 37.8495 46.6788 37.5036 45.9926 37.1676C45.3066 36.8316 44.7232 36.489 44.2431 36.1392C43.7627 35.7896 43.3922 35.4193 43.1315 35.0285C42.8708 34.6378 42.7405 34.1957 42.7405 33.702C42.7405 33.2495 42.857 32.8418 43.0903 32.4784C43.3236 32.1151 43.6531 31.8032 44.0785 31.5427C44.5038 31.282 45.0251 31.08 45.6428 30.9358C46.2602 30.7919 46.9464 30.7199 47.701 30.7199C48.25 30.7199 48.8298 30.7612 49.4403 30.8434C50.051 30.9256 50.665 31.0523 51.2827 31.2239C51.8983 31.3946 52.5003 31.6111 53.0836 31.8718C53.6492 32.1224 54.1901 32.4253 54.6994 32.7765V26.6272C53.6976 26.2433 52.6032 25.9588 51.4163 25.7737C50.2294 25.5885 48.8674 25.4961 47.3305 25.4961C45.7662 25.4961 44.2843 25.6641 42.8847 26.0001C41.485 26.3358 40.2533 26.8603 39.1899 27.5732C38.1264 28.2864 37.286 29.1947 36.6684 30.2984C36.051 31.4021 35.7422 32.7217 35.7422 34.2575C35.7422 36.218 36.3081 37.8908 37.4404 39.2757C38.5725 40.6603 40.291 41.8327 42.5963 42.7925C43.4474 43.139 44.2915 43.5025 45.1281 43.8826C45.9104 44.2391 46.5861 44.6091 47.1556 44.993C47.7251 45.3769 48.1745 45.795 48.5038 46.2475C48.8331 46.7 48.9978 47.2142 48.9978 47.7902C49.0005 48.2046 48.894 48.6125 48.689 48.9728C48.4833 49.3359 48.1709 49.6514 47.7525 49.9187C47.3341 50.1861 46.8125 50.3951 46.1882 50.5459C45.5639 50.6967 44.8331 50.7723 43.996 50.7723C42.5689 50.7723 41.1557 50.5221 39.756 50.0214C38.3561 49.521 37.0594 48.7705 35.8656 47.7694V47.7694ZM24.8961 31.3916H33.3594V25.9727H9.76953V31.3916H18.1916V55.5195H24.8961V31.3916Z" fill="white"/>
</g>
<defs>
<clipPath id="clip0_156_20">
<rect width="61" height="61" fill="white"/>
</clipPath>
</defs>
</svg>
