<svg width="68" height="58" viewBox="0 0 68 58" fill="none" xmlns="http://www.w3.org/2000/svg">
<g filter="url(#filter0_d_88_32)">
<path d="M24 12.2247C22.0093 10.5459 12.9724 8.19555 9.38921 12.2247C4.91023 17.2611 5.57885 39.5803 21.5041 40" stroke="#4B4B4B" stroke-width="6"/>
</g>
<path d="M32.1495 57.9779C21.956 57.9779 20.5402 52.0005 21.1065 49.0118V1.07751C21.1065 -0.0260148 21.956 -0.0719953 22.3807 0.0429531H66.5528C68.2517 0.0429531 68.1101 0.732655 67.827 1.07751V49.0118C67.827 56.7365 60.465 58.2078 56.7839 57.9779H32.1495Z" fill="url(#paint0_linear_88_32)"/>
<path d="M35.1132 19L26 27.5L35.1132 36M40.3208 36L49 19" stroke="#999999" stroke-width="3" stroke-linejoin="round"/>
<path d="M55 36L64 27.5L55 19" stroke="#999999" stroke-width="3" stroke-linejoin="round"/>
<defs>
<filter id="filter0_d_88_32" x="0" y="7.00098" width="29.9341" height="43.998" filterUnits="userSpaceOnUse" color-interpolation-filters="sRGB">
<feFlood flood-opacity="0" result="BackgroundImageFix"/>
<feColorMatrix in="SourceAlpha" type="matrix" values="0 0 0 0 0 0 0 0 0 0 0 0 0 0 0 0 0 0 127 0" result="hardAlpha"/>
<feOffset dy="4"/>
<feGaussianBlur stdDeviation="2"/>
<feComposite in2="hardAlpha" operator="out"/>
<feColorMatrix type="matrix" values="0 0 0 0 0 0 0 0 0 0 0 0 0 0 0 0 0 0 0.25 0"/>
<feBlend mode="normal" in2="BackgroundImageFix" result="effect1_dropShadow_88_32"/>
<feBlend mode="normal" in="SourceGraphic" in2="effect1_dropShadow_88_32" result="shape"/>
</filter>
<linearGradient id="paint0_linear_88_32" x1="20.6818" y1="33.1486" x2="64.0044" y2="33.1486" gradientUnits="userSpaceOnUse">
<stop stop-color="#4D4D4D"/>
<stop offset="0.316647" stop-color="#303030"/>
<stop offset="0.561356" stop-color="#2B2B2B"/>
<stop offset="0.794344" stop-color="#343434"/>
<stop offset="1" stop-color="#5A5A5A"/>
</linearGradient>
</defs>
</svg>
