<svg width="48" height="144" viewBox="0 0 48 144" fill="none" xmlns="http://www.w3.org/2000/svg">
<circle cx="44.5714" cy="140.571" r="3.42857" fill="white"/>
<circle cx="30.8571" cy="140.571" r="3.42857" fill="white"/>
<circle cx="17.1429" cy="140.571" r="3.42857" fill="white"/>
<circle cx="3.42857" cy="140.571" r="3.42857" fill="white"/>
<circle cx="44.5714" cy="126.857" r="3.42857" fill="white"/>
<circle cx="30.8571" cy="126.857" r="3.42857" fill="white"/>
<circle cx="17.1429" cy="126.857" r="3.42857" fill="white"/>
<circle cx="3.42857" cy="126.857" r="3.42857" fill="white"/>
<circle cx="44.5714" cy="113.143" r="3.42857" fill="white"/>
<circle cx="30.8571" cy="113.143" r="3.42857" fill="white"/>
<circle cx="17.1429" cy="113.143" r="3.42857" fill="white"/>
<circle cx="3.42857" cy="113.143" r="3.42857" fill="white"/>
<circle cx="44.5714" cy="99.4286" r="3.42857" fill="white"/>
<circle cx="30.8571" cy="99.4286" r="3.42857" fill="white"/>
<circle cx="17.1429" cy="99.4286" r="3.42857" fill="white"/>
<circle cx="3.42857" cy="99.4286" r="3.42857" fill="white"/>
<circle cx="44.5714" cy="85.7143" r="3.42857" fill="white"/>
<circle cx="30.8571" cy="85.7143" r="3.42857" fill="white"/>
<circle cx="17.1429" cy="85.7143" r="3.42857" fill="white"/>
<circle cx="3.42857" cy="85.7143" r="3.42857" fill="white"/>
<circle cx="44.5714" cy="72" r="3.42857" fill="white"/>
<circle cx="30.8571" cy="72" r="3.42857" fill="white"/>
<circle cx="17.1429" cy="72" r="3.42857" fill="white"/>
<circle cx="3.42857" cy="72" r="3.42857" fill="white"/>
<circle cx="44.5714" cy="58.2857" r="3.42857" fill="white"/>
<circle cx="30.8571" cy="58.2857" r="3.42857" fill="white"/>
<circle cx="17.1429" cy="58.2857" r="3.42857" fill="white"/>
<circle cx="3.42857" cy="58.2857" r="3.42857" fill="white"/>
<circle cx="44.5714" cy="44.5715" r="3.42857" fill="white"/>
<circle cx="30.8571" cy="44.5715" r="3.42857" fill="white"/>
<circle cx="17.1429" cy="44.5715" r="3.42857" fill="white"/>
<circle cx="3.42857" cy="44.5715" r="3.42857" fill="white"/>
<circle cx="44.5714" cy="30.8572" r="3.42857" fill="white"/>
<circle cx="30.8571" cy="30.8572" r="3.42857" fill="white"/>
<circle cx="17.1429" cy="30.8572" r="3.42857" fill="white"/>
<circle cx="3.42857" cy="30.8572" r="3.42857" fill="white"/>
<circle cx="44.5714" cy="17.1429" r="3.42857" fill="white"/>
<circle cx="30.8571" cy="17.1429" r="3.42857" fill="white"/>
<circle cx="17.1429" cy="17.1429" r="3.42857" fill="white"/>
<circle cx="3.42857" cy="17.1429" r="3.42857" fill="white"/>
<circle cx="44.5714" cy="3.42857" r="3.42857" fill="white"/>
<circle cx="30.8571" cy="3.42857" r="3.42857" fill="white"/>
<circle cx="17.1429" cy="3.42857" r="3.42857" fill="white"/>
<circle cx="3.42857" cy="3.42857" r="3.42857" fill="white"/>
</svg>
