<svg width="84" height="84" viewBox="0 0 84 84" fill="none" xmlns="http://www.w3.org/2000/svg">
<path d="M77.8708 42C77.8708 61.33 62.2008 77 42.8708 77C23.5409 77 7.87083 61.33 7.87083 42C7.87083 22.67 23.5409 7 42.8708 7C62.2008 7 77.8708 22.67 77.8708 42Z" fill="#0066FF"/>
<path d="M77.8708 42C77.8708 61.33 62.2008 77 42.8708 77C23.5409 77 7.87083 61.33 7.87083 42C7.87083 22.67 23.5409 7 42.8708 7C62.2008 7 77.8708 22.67 77.8708 42Z" fill="#0066FF"/>
<path d="M59.5 45.955V58.8945H51.9995V46.8195C51.9995 43.7885 50.9145 41.72 48.1985 41.72C46.1265 41.72 44.891 43.113 44.3485 44.464C44.1525 44.947 44.1 45.619 44.1 46.291V58.8945H36.596C36.596 58.8945 36.6975 38.4475 36.596 36.33H44.1V39.5255L44.051 39.599H44.1V39.5255C45.0975 37.9855 46.8755 35.798 50.862 35.798C55.797 35.798 59.5 39.025 59.5 45.955ZM28.7455 25.4485C26.18 25.4485 24.5 27.1355 24.5 29.3475C24.5 31.5175 26.131 33.25 28.6475 33.25H28.6965C31.3145 33.25 32.942 31.514 32.942 29.3475C32.893 27.1355 31.3145 25.4485 28.7455 25.4485ZM24.9445 58.8945H32.4485V36.33H24.9445V58.8945Z" fill="white"/>
<path d="M42 70C49.4261 70 56.548 67.05 61.799 61.799C67.05 56.548 70 49.4261 70 42C70 34.5739 67.05 27.452 61.799 22.201C56.548 16.95 49.4261 14 42 14C34.5739 14 27.452 16.95 22.201 22.201C16.95 27.452 14 34.5739 14 42C14 49.4261 16.95 56.548 22.201 61.799C27.452 67.05 34.5739 70 42 70ZM42 77C22.6695 77 7 61.3305 7 42C7 22.6695 22.6695 7 42 7C61.3305 7 77 22.6695 77 42C77 61.3305 61.3305 77 42 77Z" fill="#0066FF"/>
</svg>
