<svg width="19" height="19" viewBox="0 0 19 19" fill="none" xmlns="http://www.w3.org/2000/svg">
<g clip-path="url(#clip0_13_61)">
<path d="M16.1886 16.189H13.3735V11.7802C13.3735 10.7289 13.3547 9.3755 11.9093 9.3755C10.443 9.3755 10.2186 10.521 10.2186 11.7037V16.1887H7.40352V7.12244H10.106V8.36145H10.1439C10.4144 7.899 10.8052 7.51856 11.2748 7.26065C11.7443 7.00274 12.2751 6.87703 12.8104 6.89689C15.6638 6.89689 16.1898 8.77374 16.1898 11.2154L16.1886 16.189V16.189ZM4.22696 5.88321C3.32468 5.88336 2.59311 5.15201 2.59296 4.24973C2.59281 3.34746 3.32409 2.61588 4.22637 2.61573C5.12864 2.61551 5.86022 3.34686 5.86037 4.24914C5.86044 4.68243 5.6884 5.09801 5.38208 5.40446C5.07576 5.7109 4.66025 5.88312 4.22696 5.88321M5.63459 16.1891H2.81643V7.12244H5.63452V16.189L5.63459 16.1891ZM17.5921 0.00123025H1.40182C0.636627 -0.00737913 0.00910742 0.605593 -0.000244141 1.37079V17.6286C0.00881055 18.3942 0.636256 19.0078 1.40175 18.9997H17.5921C18.3592 19.0092 18.9891 18.3957 18.9998 17.6286V1.36953C18.9888 0.602847 18.3589 -0.010051 17.5921 -3.14709e-05" fill="#0A66C2"/>
</g>
<defs>
<clipPath id="clip0_13_61">
<rect width="19" height="19" fill="white"/>
</clipPath>
</defs>
</svg>
