<svg width="79" height="24" viewBox="0 0 79 24" fill="none" xmlns="http://www.w3.org/2000/svg">
<path d="M34 8H78V24H34V8Z" fill="url(#paint0_linear_22_310)"/>
<path d="M4.692 8.664V24H1.524V8.664H4.692ZM13.86 8.664V24H10.704V8.664H13.86ZM3.336 17.448V14.82H11.904V17.448H3.336ZM29.3784 24H25.7064L21.0024 17.208H19.7664V15.108H21.0024L25.6464 8.664H29.2104L23.5584 16.356L23.5464 15.636L29.3784 24ZM20.0544 24H16.9224V8.664H20.0544V24Z" fill="white"/>
<path d="M40.1515 19.132C39.2275 19.132 38.54 18.9193 38.089 18.494C37.638 18.0687 37.4125 17.4527 37.4125 16.646V15.942C37.4125 15.1427 37.6233 14.5285 38.045 14.0995C38.4667 13.6705 39.079 13.456 39.882 13.456C40.4247 13.456 40.8775 13.5513 41.2405 13.742C41.6035 13.9327 41.8748 14.204 42.0545 14.556C42.2378 14.9043 42.3295 15.3223 42.3295 15.81V16.0025C42.3295 16.1345 42.3222 16.2702 42.3075 16.4095C42.2965 16.5452 42.28 16.6735 42.258 16.7945H40.982C40.993 16.5928 40.9985 16.4022 40.9985 16.2225C41.0022 16.0392 41.004 15.8742 41.004 15.7275C41.004 15.4745 40.9637 15.26 40.883 15.084C40.8023 14.9043 40.6795 14.7687 40.5145 14.677C40.3495 14.5853 40.1387 14.5395 39.882 14.5395C39.5043 14.5395 39.2257 14.644 39.046 14.853C38.8663 15.062 38.7765 15.359 38.7765 15.744V16.2445L38.782 16.404V16.8275C38.782 16.9962 38.8077 17.152 38.859 17.295C38.914 17.438 39.0038 17.5627 39.1285 17.669C39.2532 17.7717 39.4182 17.8523 39.6235 17.911C39.8325 17.9697 40.0928 17.999 40.4045 17.999C40.7418 17.999 41.0627 17.9623 41.367 17.889C41.675 17.812 41.9665 17.7093 42.2415 17.581L42.1205 18.692C41.8748 18.8277 41.5852 18.934 41.2515 19.011C40.9215 19.0917 40.5548 19.132 40.1515 19.132ZM41.972 16.7945H38.1605V15.8595H41.972V16.7945ZM48.2426 19H46.8346V15.7605C46.8346 15.5332 46.8034 15.337 46.7411 15.172C46.6824 15.007 46.5834 14.8787 46.4441 14.787C46.3048 14.6953 46.1141 14.6495 45.8721 14.6495C45.6594 14.6495 45.4724 14.688 45.3111 14.765C45.1534 14.842 45.0233 14.9465 44.9206 15.0785C44.8216 15.2068 44.7464 15.3535 44.6951 15.5185L44.4751 14.7485H44.7391C44.7978 14.5102 44.8949 14.2957 45.0306 14.105C45.1699 13.9143 45.3569 13.764 45.5916 13.654C45.8299 13.5403 46.1269 13.4835 46.4826 13.4835C46.8969 13.4835 47.2324 13.5623 47.4891 13.72C47.7458 13.874 47.9346 14.105 48.0556 14.413C48.1803 14.721 48.2426 15.1023 48.2426 15.557V19ZM44.7281 19H43.3201V13.6045H44.7281L44.6731 14.919L44.7281 15.0345V19ZM53.9372 19H52.5457L52.5952 17.68L52.5567 17.559V15.8705L52.5512 15.6285C52.5512 15.2765 52.454 15.018 52.2597 14.853C52.069 14.688 51.7555 14.6055 51.3192 14.6055C50.9488 14.6055 50.6005 14.655 50.2742 14.754C49.9515 14.8493 49.6527 14.9612 49.3777 15.0895L49.4987 13.9675C49.66 13.8832 49.8433 13.8043 50.0487 13.731C50.2577 13.654 50.4905 13.5917 50.7472 13.544C51.0038 13.4963 51.2807 13.4725 51.5777 13.4725C52.0177 13.4725 52.3898 13.5257 52.6942 13.632C52.9985 13.7347 53.2405 13.8832 53.4202 14.0775C53.6035 14.2718 53.7355 14.5047 53.8162 14.776C53.8968 15.0437 53.9372 15.3407 53.9372 15.667V19ZM50.7802 19.1265C50.2448 19.1265 49.836 18.9927 49.5537 18.725C49.275 18.4573 49.1357 18.076 49.1357 17.581V17.427C49.1357 16.9027 49.297 16.5158 49.6197 16.2665C49.9423 16.0135 50.4538 15.8393 51.1542 15.744L52.6832 15.535L52.7657 16.4425L51.3577 16.646C51.0497 16.6863 50.8297 16.7597 50.6977 16.866C50.5693 16.9723 50.5052 17.1282 50.5052 17.3335V17.3885C50.5052 17.5902 50.5675 17.7478 50.6922 17.8615C50.8205 17.9715 51.0203 18.0265 51.2917 18.0265C51.5337 18.0265 51.7408 17.988 51.9132 17.911C52.0855 17.834 52.2267 17.7332 52.3367 17.6085C52.4503 17.4802 52.531 17.3372 52.5787 17.1795L52.7767 17.878H52.5347C52.476 18.109 52.3807 18.3198 52.2487 18.5105C52.1203 18.6975 51.9388 18.8478 51.7042 18.9615C51.4695 19.0715 51.1615 19.1265 50.7802 19.1265ZM58.1735 19.1265C57.8509 19.1265 57.5759 19.0752 57.3485 18.9725C57.1249 18.8662 56.9434 18.7177 56.804 18.527C56.6684 18.3363 56.5712 18.1127 56.5125 17.856H56.111L56.474 16.778C56.485 17.0347 56.54 17.251 56.639 17.427C56.738 17.603 56.8755 17.735 57.0515 17.823C57.2275 17.911 57.431 17.955 57.662 17.955C58.0177 17.955 58.2872 17.8523 58.4705 17.647C58.6539 17.438 58.7455 17.1263 58.7455 16.712V15.8375C58.7455 15.4342 58.6539 15.1298 58.4705 14.9245C58.2872 14.7192 58.0177 14.6165 57.662 14.6165C57.453 14.6165 57.266 14.6568 57.101 14.7375C56.936 14.8145 56.7985 14.919 56.6885 15.051C56.5785 15.183 56.4997 15.3352 56.452 15.5075L56.133 14.7485H56.529C56.5877 14.5138 56.6812 14.3012 56.8095 14.1105C56.9379 13.9162 57.1157 13.764 57.343 13.654C57.574 13.5403 57.8674 13.4835 58.223 13.4835C58.8574 13.4835 59.3395 13.6888 59.6695 14.0995C59.9995 14.5065 60.1645 15.1097 60.1645 15.909V16.657C60.1645 17.4637 59.9977 18.0778 59.664 18.4995C59.3304 18.9175 58.8335 19.1265 58.1735 19.1265ZM56.5015 19H55.0935V11.729H56.496V13.39L56.4685 15.0345L56.474 15.205V17.3445L56.452 17.68L56.5015 19ZM62.6303 19H61.2168V11.729H62.6303V19ZM66.4054 19.132C65.4814 19.132 64.7939 18.9193 64.3429 18.494C63.8919 18.0687 63.6664 17.4527 63.6664 16.646V15.942C63.6664 15.1427 63.8772 14.5285 64.2989 14.0995C64.7206 13.6705 65.3329 13.456 66.1359 13.456C66.6786 13.456 67.1314 13.5513 67.4944 13.742C67.8574 13.9327 68.1287 14.204 68.3084 14.556C68.4917 14.9043 68.5834 15.3223 68.5834 15.81V16.0025C68.5834 16.1345 68.5761 16.2702 68.5614 16.4095C68.5504 16.5452 68.5339 16.6735 68.5119 16.7945H67.2359C67.2469 16.5928 67.2524 16.4022 67.2524 16.2225C67.2561 16.0392 67.2579 15.8742 67.2579 15.7275C67.2579 15.4745 67.2176 15.26 67.1369 15.084C67.0562 14.9043 66.9334 14.7687 66.7684 14.677C66.6034 14.5853 66.3926 14.5395 66.1359 14.5395C65.7582 14.5395 65.4796 14.644 65.2999 14.853C65.1202 15.062 65.0304 15.359 65.0304 15.744V16.2445L65.0359 16.404V16.8275C65.0359 16.9962 65.0616 17.152 65.1129 17.295C65.1679 17.438 65.2577 17.5627 65.3824 17.669C65.5071 17.7717 65.6721 17.8523 65.8774 17.911C66.0864 17.9697 66.3467 17.999 66.6584 17.999C66.9957 17.999 67.3166 17.9623 67.6209 17.889C67.9289 17.812 68.2204 17.7093 68.4954 17.581L68.3744 18.692C68.1287 18.8277 67.8391 18.934 67.5054 19.011C67.1754 19.0917 66.8087 19.132 66.4054 19.132ZM68.2259 16.7945H64.4144V15.8595H68.2259V16.7945ZM71.4487 19.132C71.0161 19.132 70.6311 19.0898 70.2937 19.0055C69.9601 18.9248 69.6759 18.8332 69.4412 18.7305L69.3147 17.5095C69.5934 17.6378 69.8996 17.7497 70.2332 17.845C70.5706 17.9403 70.9409 17.988 71.3442 17.988C71.6962 17.988 71.9511 17.944 72.1087 17.856C72.2664 17.7643 72.3452 17.6287 72.3452 17.449V17.416C72.3452 17.295 72.3086 17.196 72.2352 17.119C72.1656 17.042 72.0409 16.9723 71.8612 16.91C71.6816 16.844 71.4286 16.7743 71.1022 16.701C70.6512 16.5947 70.2937 16.4718 70.0297 16.3325C69.7694 16.1895 69.5824 16.0153 69.4687 15.81C69.3551 15.601 69.2982 15.3517 69.2982 15.062V15.0125C69.2982 14.5028 69.4797 14.1197 69.8427 13.863C70.2057 13.6027 70.7429 13.4725 71.4542 13.4725C71.8759 13.4725 72.2481 13.5147 72.5707 13.599C72.8971 13.6797 73.1684 13.7768 73.3847 13.8905L73.5112 15.0125C73.2546 14.8915 72.9667 14.7907 72.6477 14.71C72.3287 14.6257 71.9859 14.5835 71.6192 14.5835C71.3809 14.5835 71.1921 14.6037 71.0527 14.644C70.9171 14.6807 70.8199 14.7338 70.7612 14.8035C70.7026 14.8732 70.6732 14.9575 70.6732 15.0565V15.084C70.6732 15.194 70.7044 15.2893 70.7667 15.37C70.8327 15.4507 70.9519 15.524 71.1242 15.59C71.2966 15.6523 71.5386 15.7202 71.8502 15.7935C72.3049 15.8888 72.6697 16.0007 72.9447 16.129C73.2197 16.2573 73.4196 16.4223 73.5442 16.624C73.6689 16.822 73.7312 17.0823 73.7312 17.405V17.471C73.7312 18.0283 73.5424 18.4445 73.1647 18.7195C72.7871 18.9945 72.2151 19.132 71.4487 19.132Z" fill="white"/>
<defs>
<linearGradient id="paint0_linear_22_310" x1="34" y1="15.4667" x2="76.5333" y2="15.4667" gradientUnits="userSpaceOnUse">
<stop stop-color="#0FBC7C"/>
<stop offset="1" stop-color="#0871C1"/>
</linearGradient>
</defs>
</svg>
