<svg width="70" height="70" viewBox="0 0 70 70" fill="none" xmlns="http://www.w3.org/2000/svg">
<circle cx="35" cy="35" r="35" fill="#8000FF"/>
<path d="M37.375 26.1H50.4375L37.375 13.45V26.1ZM20.75 10H39.75L54 23.8V51.4C54 52.62 53.4996 53.79 52.6088 54.6527C51.718 55.5154 50.5098 56 49.25 56H20.75C19.4902 56 18.282 55.5154 17.3912 54.6527C16.5004 53.79 16 52.62 16 51.4V14.6C16 12.047 18.1137 10 20.75 10ZM39.75 51.4V49.1C39.75 46.041 33.4088 44.5 30.25 44.5C27.0912 44.5 20.75 46.041 20.75 49.1V51.4H39.75ZM30.25 33C28.9902 33 27.782 33.4846 26.8912 34.3473C26.0004 35.21 25.5 36.38 25.5 37.6C25.5 38.82 26.0004 39.99 26.8912 40.8527C27.782 41.7154 28.9902 42.2 30.25 42.2C31.5098 42.2 32.718 41.7154 33.6088 40.8527C34.4996 39.99 35 38.82 35 37.6C35 36.38 34.4996 35.21 33.6088 34.3473C32.718 33.4846 31.5098 33 30.25 33Z" fill="white"/>
</svg>
