<svg width="22" height="22" viewBox="0 0 22 22" fill="none" xmlns="http://www.w3.org/2000/svg">
<path d="M11.9167 8.25H16.9583L11.9167 3.20833V8.25ZM5.5 1.83333H12.8333L18.3333 7.33333V18.3333C18.3333 18.8196 18.1402 19.2859 17.7964 19.6297C17.4525 19.9735 16.9862 20.1667 16.5 20.1667H5.5C5.01377 20.1667 4.54746 19.9735 4.20364 19.6297C3.85982 19.2859 3.66667 18.8196 3.66667 18.3333V3.66667C3.66667 2.64917 4.4825 1.83333 5.5 1.83333ZM12.8333 18.3333V17.4167C12.8333 16.1975 10.3858 15.5833 9.16667 15.5833C7.9475 15.5833 5.5 16.1975 5.5 17.4167V18.3333H12.8333ZM9.16667 11C8.68044 11 8.21412 11.1932 7.87031 11.537C7.52649 11.8808 7.33333 12.3471 7.33333 12.8333C7.33333 13.3196 7.52649 13.7859 7.87031 14.1297C8.21412 14.4735 8.68044 14.6667 9.16667 14.6667C9.6529 14.6667 10.1192 14.4735 10.463 14.1297C10.8068 13.7859 11 13.3196 11 12.8333C11 12.3471 10.8068 11.8808 10.463 11.537C10.1192 11.1932 9.6529 11 9.16667 11Z" fill="black"/>
</svg>
