<svg width="20" height="56" viewBox="0 0 20 56" fill="none" xmlns="http://www.w3.org/2000/svg">
<path d="M0.693716 45.5C-1.70628 50.7 2.69372 54.3333 5.19372 55.5C3.69372 54.0996 1.59372 49.739 5.19372 43.5C8.79372 37.261 5.69372 31.9004 3.69373 30C8.19373 37 3.69372 39 0.693716 45.5Z" fill="#E3E3E3"/>
<path d="M7.69372 15.5C5.29372 20.7 9.69372 24.3333 12.1937 25.5C10.6937 24.0996 8.59372 19.739 12.1937 13.5C15.7937 7.26097 12.6937 1.90041 10.6937 0C15.1937 7 10.6937 9 7.69372 15.5Z" fill="#E3E3E3"/>
<path d="M13.6937 38.5C11.2937 43.7 15.6937 47.3333 18.1937 48.5C16.6937 47.0996 14.5937 42.739 18.1937 36.5C21.7937 30.261 18.6937 24.9004 16.6937 23C21.1937 30 16.6937 32 13.6937 38.5Z" fill="#E3E3E3"/>
</svg>
